<?xml version="1.0" encoding="utf-8"?>
<!-- Generator: Adobe Illustrator 22.0.0, SVG Export Plug-In . SVG Version: 6.00 Build 0)  -->
<svg version="1.1" id="Layer_1" xmlns="http://www.w3.org/2000/svg" xmlns:xlink="http://www.w3.org/1999/xlink" x="0px" y="0px"
	 viewBox="0 0 269 98" style="enable-background:new 0 0 269 98;" xml:space="preserve">
<style type="text/css">
	.st0{fill:#53917E;}
</style>
<polygon class="st0" points="157.8,29.1 158.2,77.4 147.8,77.4 147.8,10.7 159.8,10.7 183.9,64.8 207.7,10.7 219.8,10.7 219.8,77.4 
	209.2,77.4 209.6,28.7 187.9,77.4 179.5,77.4 "/>
<path class="st0" d="M223.6,54.2c0-15.9,8.1-24.7,22.9-24.7c14.5,0,20.8,9.9,20.8,23c0,1.5-0.1,3-0.3,4.7h-33
	c0.6,9.8,5.1,13.5,13.1,13.5c6.1,0,10-1.6,12.7-7.3l7.2,4.1c-3.7,7.8-11,11.3-20.4,11.3C232.2,78.7,223.6,71,223.6,54.2 M234.1,50
	h23c-0.4-8.7-4.2-12.5-10.9-12.5C239.2,37.5,234.8,41,234.1,50"/>
<path class="st0" d="M3.2,44.1C3.2,19,13.8,9.7,31.7,9.7c10.9,0,19,3.5,23.6,12.3l-2.5,1.6c-4.3-8.2-11.5-11.3-21.1-11.3
	C16.2,12.3,6.3,20.1,6.3,44s9.9,31.9,25.5,31.9c9.9,0,17.5-3.3,22.2-12.3l2.3,1.5c-5,9.6-13.4,13.4-24.5,13.4
	C13.8,78.4,3.2,69.1,3.2,44.1"/>
<rect x="64.6" y="31.9" class="st0" width="3" height="45.6"/>
<path class="st0" d="M66.1,1c-4.8,0-8.7,3.8-8.9,8.6c0,0.1,0,0.2,0,0.3c0,1.3,0.3,2.6,0.8,3.7l0.8,1.3l7.3,12.6L73.4,15l0.8-1.3
	c0.5-1.1,0.8-2.4,0.8-3.7V9.6C74.8,4.8,70.9,1,66.1,1 M66.1,6.7C67.7,6.7,69,8,69,9.6c0,1.6-1.3,2.9-2.9,2.9c-1.6,0-2.9-1.3-2.9-2.9
	C63.2,8,64.5,6.7,66.1,6.7"/>
<path class="st0" d="M142.5,31.9l-21.8,51.3C115.6,94.9,110.3,97,104.1,97c-2.4,0-4.5-0.3-7-1.2l0.5-2.5c2.1,0.8,3.7,1.1,6.4,1.1
	c4.8,0,9.3-1.4,14.1-12.4l1.7-4.4l-17.5-41.2c-0.6-1.4-1.9-2.2-3.4-2.2H85.5v27.5c0,11.6,4.2,14,10.5,14c2.8,0,4.4-0.4,6.5-1.1
	l0.6,2.5c-3.3,1.1-5.1,1.2-7.8,1.2c-7.8,0-12.6-4.4-12.6-15.3V34.2h-9.2v-2.4c0,0,0.4,0.1,1.1,0c2.4-0.2,7.8-2.1,8-14.1h2.9v14.1
	h18.1l17.9,42.7l17.9-42.7H142.5z"/>
</svg>
